<?xml version="1.0" encoding="iso-8859-1"?>
<!-- Generator: Adobe Illustrator 16.0.0, SVG Export Plug-In . SVG Version: 6.00 Build 0)  -->
<!DOCTYPE svg PUBLIC "-//W3C//DTD SVG 1.1//EN" "http://www.w3.org/Graphics/SVG/1.1/DTD/svg11.dtd">
<svg xmlns="http://www.w3.org/2000/svg" xmlns:xlink="http://www.w3.org/1999/xlink" version="1.1" id="Capa_1" x="0px" y="0px" width="512px" height="512px" viewBox="0 0 94 94" style="enable-background:new 0 0 94 94;" xml:space="preserve">
<g>
	<g>
		<path d="M89,0H5C2.238,0,0,2.238,0,5v84c0,2.762,2.238,5,5,5h84c2.762,0,5-2.238,5-5V5C94,2.238,91.762,0,89,0z M45.064,73.975    H33.082c-0.563-0.756-0.922-1.623-1.074-2.605c-0.154-0.982-0.256-2.001-0.309-3.059L31.4,57.959    c-0.102-2.117-0.625-3.775-1.576-4.986c-0.948-1.211-2.551-1.814-4.799-1.814h-5.777v22.816H8.313V20.028H28.51    c4.557,0,8.101,1.146,10.632,3.438c2.529,2.293,3.796,5.78,3.796,10.465c0,3.626-0.734,6.586-2.203,8.878    c-1.467,2.292-3.744,3.765-6.832,4.421v0.15c1.872,0.252,3.363,0.717,4.479,1.396c1.112,0.683,1.975,1.662,2.581,2.945    c0.607,1.285,1.025,2.91,1.253,4.875s0.366,4.381,0.417,7.254c0.05,2.868,0.217,5.06,0.495,6.572    c0.277,1.51,0.923,2.542,1.937,3.098L45.064,73.975L45.064,73.975z M85.688,73.975h-8.051V68.99h-0.15    c-1.317,2.111-2.897,3.652-4.746,4.604c-1.85,0.96-4.061,1.438-6.643,1.438c-3.342,0-6.063-0.616-8.164-1.851    c-2.103-1.232-3.746-3.06-4.935-5.479c-1.188-2.416-1.989-5.402-2.392-8.95c-0.407-3.555-0.609-7.671-0.609-12.354    c0-4.536,0.291-8.515,0.875-11.939c0.581-3.425,1.58-6.284,2.999-8.574c1.416-2.29,3.291-4.018,5.618-5.177    c2.326-1.159,5.24-1.739,8.732-1.739c5.971,0,10.274,1.475,12.907,4.422c2.631,2.947,3.948,7.166,3.948,12.655H74.6    c0-0.956-0.113-1.975-0.342-3.062c-0.226-1.082-0.596-2.062-1.102-2.944c-0.504-0.881-1.149-1.611-1.936-2.193    c-0.783-0.577-1.734-0.868-2.848-0.868c-2.633,0-4.53,1.463-5.693,4.383c-1.166,2.921-1.746,7.758-1.746,14.509    c0,3.271,0.101,6.207,0.301,8.8c0.201,2.596,0.574,4.812,1.104,6.651c0.531,1.836,1.291,3.245,2.277,4.229    c0.988,0.979,2.264,1.473,3.836,1.473c0.656,0,1.377-0.178,2.162-0.53c0.785-0.351,1.52-0.879,2.201-1.584    c0.684-0.706,1.254-1.599,1.709-2.685c0.455-1.084,0.686-2.353,0.686-3.814v-5.516h-7.215v-8.011h17.691v29.089H85.688z" fill="#FFFFFF"/>
		<path d="M24.41,28.038h-5.162v15.561h4.556c2.631,0,4.655-0.615,6.074-1.851c1.416-1.231,2.124-3.311,2.124-6.231    C32.002,30.532,29.474,28.038,24.41,28.038z" fill="#FFFFFF"/>
	</g>
</g>
<g>
</g>
<g>
</g>
<g>
</g>
<g>
</g>
<g>
</g>
<g>
</g>
<g>
</g>
<g>
</g>
<g>
</g>
<g>
</g>
<g>
</g>
<g>
</g>
<g>
</g>
<g>
</g>
<g>
</g>
</svg>
